<?xml version="1.0" standalone="no"?>
<!DOCTYPE svg PUBLIC "-//W3C//DTD SVG 20010904//EN"
 "http://www.w3.org/TR/2001/REC-SVG-20010904/DTD/svg10.dtd">
<svg version="1.0" xmlns="http://www.w3.org/2000/svg"
 width="2048.000000pt" height="1536.000000pt" viewBox="0 0 2048.000000 1536.000000"
 preserveAspectRatio="xMidYMid meet">

<g transform="translate(0.000000,1536.000000) scale(0.100000,-0.100000)"
fill="#000000" stroke="none">
<path d="M9864 13132 c-690 -815 -1127 -2061 -1214 -3457 -5 -88 -10 -289 -10
-447 l0 -288 1260 0 1260 0 0 343 c0 450 -20 744 -76 1117 -133 895 -426 1708
-837 2325 -83 125 -224 308 -294 382 l-58 61 -31 -36z"/>
<path d="M4426 11071 c-6 -10 42 -373 74 -558 85 -497 209 -936 390 -1391 l73
-183 1526 7 c839 4 1527 7 1528 8 1 1 -39 57 -88 126 -318 442 -739 846 -1180
1133 -483 313 -991 536 -1614 706 -258 70 -701 165 -709 152z"/>
<path d="M15400 11063 c-756 -134 -1282 -298 -1830 -572 -352 -177 -641 -366
-955 -625 -150 -124 -470 -444 -596 -596 -103 -125 -249 -314 -249 -324 0 -3
701 -5 1557 -4 l1558 3 58 134 c171 394 311 837 401 1266 48 233 116 640 116
703 0 23 -7 24 -60 15z"/>
<path d="M5200 8325 c0 -26 163 -316 268 -477 l57 -88 4385 0 4385 0 72 108
c112 168 253 419 253 452 0 7 -1515 10 -4710 10 -2591 0 -4710 -2 -4710 -5z"/>
<path d="M5961 7148 c26 -48 254 -262 396 -371 l151 -117 3387 0 3386 0 127
103 c69 56 196 170 282 254 l155 152 -3948 1 -3948 0 12 -22z"/>
<path d="M7280 6155 c163 -102 478 -256 730 -357 185 -74 538 -189 755 -247
214 -56 474 -115 481 -109 3 4 -67 613 -82 711 l-6 37 -966 0 -967 0 55 -35z"/>
<path d="M9386 6118 c103 -205 273 -454 461 -676 l62 -73 71 92 c74 96 145
202 223 331 49 81 207 380 207 391 0 4 -239 7 -530 7 l-530 0 36 -72z"/>
<path d="M10635 6168 c-8 -35 -113 -683 -111 -685 3 -4 288 55 431 88 565 132
1125 341 1540 574 l80 44 -967 1 -968 0 -5 -22z"/>
<path d="M15475 5033 c-203 -45 -353 -182 -409 -372 -20 -69 -21 -199 -1 -276
44 -167 195 -314 370 -361 67 -18 197 -18 270 1 182 48 331 207 371 397 60
282 -136 560 -427 607 -64 11 -137 12 -174 4z m198 -98 c178 -46 298 -176 329
-353 35 -205 -95 -409 -300 -472 -209 -65 -429 35 -525 238 -30 62 -32 75 -32
172 0 97 2 110 32 173 91 192 299 294 496 242z"/>
<path d="M15350 4521 l0 -281 55 0 55 0 0 115 0 115 43 0 c37 0 48 -6 79 -37
19 -21 59 -73 87 -115 l52 -78 64 0 c36 0 65 2 65 5 0 17 -132 204 -156 219
l-28 19 39 14 c21 7 47 21 58 31 72 65 59 199 -23 247 -31 17 -57 20 -212 24
l-178 3 0 -281z m320 161 c29 -23 29 -67 1 -95 -19 -19 -33 -22 -114 -22 l-92
0 -3 68 -3 67 94 0 c77 0 99 -3 117 -18z"/>
<path d="M8218 4226 l-3 -405 -60 41 c-87 59 -208 114 -321 145 -86 24 -117
27 -244 27 -119 0 -160 -4 -230 -22 -333 -89 -591 -350 -672 -679 -30 -123
-30 -303 0 -427 85 -344 369 -620 714 -690 121 -25 295 -21 411 8 113 29 247
95 335 166 34 27 64 50 67 50 3 0 5 -49 5 -110 l0 -110 210 0 210 0 0 1205 0
1205 -210 0 -210 0 -2 -404z m-502 -567 c85 -15 209 -78 271 -137 112 -108
173 -242 175 -387 3 -160 -46 -279 -162 -395 -179 -180 -428 -216 -655 -97
-180 95 -302 323 -281 525 13 125 82 269 167 348 130 122 311 175 485 143z"/>
<path d="M8870 4405 l0 -225 223 2 222 3 0 220 0 220 -222 3 -223 2 0 -225z"/>
<path d="M10980 4230 c0 -220 -2 -400 -5 -400 -3 0 -26 15 -53 34 -77 56 -229
124 -337 152 -116 30 -294 36 -405 15 -352 -69 -636 -333 -731 -681 -30 -109
-33 -325 -6 -433 83 -335 343 -599 677 -689 71 -19 109 -23 235 -22 133 1 160
4 240 28 111 34 223 91 303 156 34 28 67 50 72 50 6 0 10 -42 10 -105 l0 -105
210 0 210 0 0 1200 0 1200 -210 0 -210 0 0 -400z m-488 -571 c79 -16 186 -71
249 -128 238 -213 246 -566 19 -791 -107 -106 -235 -160 -384 -160 -154 0
-278 52 -392 165 -172 170 -212 412 -103 628 39 76 151 190 229 232 112 60
256 80 382 54z"/>
<path d="M5320 4095 c-105 -17 -230 -62 -313 -111 -34 -21 -103 -78 -154 -127
-141 -136 -224 -274 -271 -446 -22 -84 -25 -116 -26 -256 0 -133 4 -175 22
-249 85 -339 351 -605 692 -692 59 -15 109 -19 235 -18 145 0 168 3 249 28
136 41 236 86 278 124 l38 34 0 -81 0 -81 215 0 215 0 0 783 c0 431 -3 845 -7
920 l-6 137 -209 0 -208 0 0 -80 c0 -44 -3 -80 -6 -80 -4 0 -29 21 -56 46
-131 122 -442 190 -688 149z m334 -421 c237 -61 408 -277 409 -519 2 -268
-176 -485 -443 -541 -342 -71 -666 209 -647 561 13 238 175 437 407 499 73 20
198 20 274 0z"/>
<path d="M12287 4095 c-109 -21 -191 -50 -270 -96 -347 -205 -529 -604 -462
-1014 38 -234 156 -436 343 -586 234 -189 564 -253 855 -168 103 30 226 85
269 119 l38 31 0 -76 0 -75 215 0 215 0 0 718 c0 394 -3 808 -7 920 l-6 202
-209 0 -208 0 0 -86 0 -86 -52 48 c-63 56 -164 106 -273 134 -107 28 -337 36
-448 15z m335 -410 c263 -55 455 -305 434 -565 -9 -122 -47 -218 -123 -312
-189 -235 -550 -266 -779 -67 -120 105 -181 226 -191 379 -7 106 8 179 53 270
113 226 362 347 606 295z"/>
<path d="M14254 4080 c-253 -18 -398 -93 -513 -265 -75 -113 -94 -184 -89
-343 4 -145 9 -158 96 -265 69 -85 138 -140 210 -167 30 -12 135 -37 231 -56
434 -86 496 -106 531 -174 24 -47 26 -110 5 -151 -56 -108 -310 -168 -469
-111 -94 34 -119 59 -178 182 l-53 109 -219 1 -219 0 7 -52 c19 -145 100 -303
210 -413 86 -85 178 -136 314 -172 86 -23 117 -26 277 -27 248 -1 397 29 532
108 354 208 365 768 18 953 -102 54 -206 82 -437 118 -123 19 -253 44 -290 55
-124 37 -169 103 -134 195 36 93 130 137 296 139 84 1 101 -2 150 -26 30 -15
64 -35 76 -45 38 -33 81 -101 94 -148 l13 -45 219 0 220 0 -7 43 c-19 125 -71
241 -140 312 -86 88 -277 198 -399 230 -77 19 -213 25 -352 15z"/>
<path d="M8870 3140 l0 -920 220 0 220 0 0 920 0 920 -220 0 -220 0 0 -920z"/>
</g>
</svg>
