<?xml version="1.0" standalone="no"?>
<!DOCTYPE svg PUBLIC "-//W3C//DTD SVG 20010904//EN"
 "http://www.w3.org/TR/2001/REC-SVG-20010904/DTD/svg10.dtd">
<svg version="1.0" xmlns="http://www.w3.org/2000/svg"
 width="1000.000000pt" height="800.000000pt" viewBox="0 0 1000.000000 800.000000"
 preserveAspectRatio="xMidYMid meet">

<g transform="translate(0.000000,800.000000) scale(0.100000,-0.100000)"
fill="#000000" stroke="none">
<path d="M5275 6835 c-397 -240 -649 -398 -647 -406 2 -7 424 -714 938 -1571
l935 -1558 901 0 c722 0 899 3 895 13 -3 9 -1491 2488 -2236 3725 -64 105
-120 192 -126 191 -5 0 -302 -178 -660 -394z"/>
<path d="M3690 5439 c-355 -215 -650 -393 -657 -397 -7 -5 164 -298 510 -874
l520 -868 903 0 903 0 -757 1262 c-417 694 -762 1263 -767 1264 -6 1 -300
-173 -655 -387z"/>
<path d="M2090 4034 c-360 -217 -655 -398 -655 -404 0 -5 43 -81 95 -169 l95
-160 903 -1 903 0 -23 38 c-13 22 -165 276 -338 565 -173 290 -317 526 -320
526 -3 0 -300 -178 -660 -395z"/>
<path d="M9190 3457 c-49 -16 -123 -93 -138 -143 -25 -85 -5 -182 51 -243 56
-61 184 -89 261 -57 48 20 107 75 127 121 25 53 24 147 0 200 -23 49 -74 99
-123 119 -42 18 -126 19 -178 3z m178 -48 c125 -61 138 -259 21 -336 -75 -50
-176 -43 -241 15 -49 44 -68 85 -68 147 0 79 45 150 115 181 46 20 122 17 173
-7z"/>
<path d="M9172 3234 c3 -113 5 -129 21 -132 14 -3 17 5 17 52 0 52 2 56 23 56
30 0 49 -16 81 -67 17 -27 34 -43 46 -43 27 0 25 9 -14 65 l-35 48 30 28 c34
31 37 57 10 90 -17 21 -30 24 -100 27 l-82 4 3 -128z m143 51 c0 -29 -2 -30
-52 -33 l-53 -3 0 36 0 36 53 -3 c50 -3 52 -4 52 -33z"/>
<path d="M3510 2991 l0 -310 -75 38 c-469 240 -1039 -30 -1160 -549 -22 -95
-20 -269 5 -366 72 -288 298 -517 586 -596 61 -16 108 -21 204 -21 148 0 234
20 359 82 l81 41 0 -40 0 -40 185 0 185 0 0 1035 0 1035 -185 0 -185 0 0 -309z
m-311 -570 c122 -38 218 -122 275 -241 29 -62 31 -71 31 -185 0 -114 -2 -123
-31 -185 -77 -161 -231 -260 -404 -260 -127 0 -242 50 -328 145 -162 177 -161
433 3 604 120 126 293 172 454 122z"/>
<path d="M5877 3294 c-4 -4 -7 -143 -7 -309 l0 -301 -84 41 c-122 60 -215 80
-361 79 -147 -2 -238 -24 -363 -89 -200 -104 -351 -290 -414 -511 -31 -109
-31 -303 0 -418 33 -119 104 -246 191 -339 114 -120 219 -185 378 -233 74 -23
108 -27 213 -28 146 0 240 21 365 84 l75 38 0 -39 0 -39 190 0 190 0 -2 1033
-3 1032 -181 3 c-99 1 -183 -1 -187 -4z m-263 -892 c90 -42 177 -126 219 -211
31 -64 32 -69 32 -196 0 -127 -1 -132 -32 -196 -42 -85 -129 -169 -220 -212
-64 -30 -75 -32 -178 -32 -103 0 -114 2 -177 32 -91 43 -133 77 -185 146 -134
182 -102 460 69 600 50 41 130 83 184 97 22 5 80 8 130 6 78 -3 102 -8 158
-34z"/>
<path d="M4070 3110 l0 -180 200 0 200 0 0 180 0 180 -200 0 -200 0 0 -180z"/>
<path d="M8720 2819 c-156 -18 -271 -72 -364 -168 -103 -109 -151 -259 -127
-402 13 -82 37 -134 89 -191 84 -93 194 -139 505 -212 225 -52 285 -74 327
-123 34 -38 36 -50 16 -97 -43 -103 -242 -145 -426 -90 -62 18 -135 82 -144
127 -3 15 -8 38 -11 52 l-5 25 -205 0 -205 0 0 -35 c0 -166 105 -322 272 -405
144 -70 213 -83 443 -84 228 -1 283 9 421 74 188 90 283 253 272 466 -4 67
-10 94 -37 148 -72 147 -197 211 -586 300 -282 65 -346 103 -332 193 14 86
114 130 274 120 135 -8 206 -56 233 -159 l11 -38 200 0 200 0 -7 53 c-26 222
-145 353 -376 417 -128 35 -292 46 -438 29z"/>
<path d="M1155 2796 c-557 -109 -839 -714 -562 -1205 58 -103 188 -235 292
-295 242 -141 542 -149 782 -22 34 18 65 31 68 28 3 -3 5 -20 5 -39 l0 -33
185 0 185 0 0 770 0 770 -185 0 -185 0 0 -38 c0 -21 -2 -41 -5 -43 -2 -3 -44
14 -92 38 -47 23 -118 50 -157 59 -98 22 -246 27 -331 10z m295 -381 c271
-107 375 -429 215 -669 -47 -71 -101 -116 -191 -158 -65 -31 -75 -33 -179 -33
-103 0 -114 2 -178 32 -201 95 -306 311 -252 518 41 155 171 287 321 325 58
14 211 6 264 -15z"/>
<path d="M4070 2020 l0 -790 200 0 200 0 0 790 0 790 -200 0 -200 0 0 -790z"/>
<path d="M7045 2796 c-319 -63 -565 -295 -645 -610 -27 -108 -27 -273 0 -382
72 -288 299 -518 586 -595 61 -17 107 -22 204 -22 147 0 237 20 351 80 41 21
77 39 82 41 4 2 7 -15 7 -37 l0 -41 185 0 185 0 0 770 0 770 -185 0 -185 0 0
-44 0 -45 -77 39 c-43 22 -112 48 -153 60 -98 27 -262 34 -355 16z m274 -375
c122 -38 218 -122 275 -241 29 -62 31 -71 31 -185 0 -116 -1 -123 -32 -186
-81 -163 -229 -259 -403 -259 -127 0 -242 50 -328 145 -223 243 -120 625 196
726 76 24 184 24 261 0z"/>
</g>
</svg>
